<svg width="67" height="31" viewBox="0 0 67 31" fill="none" xmlns="http://www.w3.org/2000/svg">
<path d="M6.58629 23.9273C7.62223 23.9273 8.53863 23.7381 9.3355 23.3595C10.1324 22.9611 10.74 22.3634 11.1583 21.5666V23.5687H15.3419V7.25276H10.8595V16.7853C10.8595 17.7217 10.5806 18.4787 10.0228 19.0564C9.465 19.6142 8.74781 19.8931 7.87125 19.8931C6.99469 19.8931 6.27751 19.6142 5.7197 19.0564C5.16188 18.4787 4.88298 17.7217 4.88298 16.7853V7.25276H0.400574V17.1439C0.400574 19.176 0.928501 20.8195 1.98436 22.0746C3.06013 23.3097 4.59411 23.9273 6.58629 23.9273Z" fill="black"/>
<path d="M18.6181 5.78851H23.1005V1.3061H18.6181V5.78851ZM18.6181 23.5687H23.1005V7.25276H18.6181V23.5687Z" fill="black"/>
<path d="M28.3528 23.5687H32.8352V11.1375H36.3315V7.25276H32.8352V7.0137C32.8352 5.55941 33.6819 4.83226 35.3752 4.83226C35.6542 4.83226 35.9829 4.86214 36.3614 4.92191V1.09692C35.9032 0.997314 35.3752 0.94751 34.7776 0.94751C32.7456 0.94751 31.1618 1.47544 30.0262 2.53129C28.9106 3.58715 28.3528 5.08128 28.3528 7.0137V7.25276H25.6036V11.1375H28.3528V23.5687Z" fill="black"/>
<path d="M38.6371 23.5687H43.1195V14.7832C43.1195 13.568 43.4582 12.6316 44.1355 11.9742C44.8129 11.2969 45.6994 10.9582 46.7951 10.9582H48.1996V7.07346H47.2433C46.2473 7.07346 45.3607 7.26272 44.5838 7.64123C43.8268 7.99983 43.2391 8.68713 42.8207 9.70314V7.25276H38.6371V23.5687Z" fill="black"/>
<path d="M52.7042 30.2027C55.6924 30.2027 57.854 28.4994 59.1887 25.0927L66.1813 7.25276H61.3702L57.5153 17.7416L53.6604 7.25276H48.8493L55.2741 23.5687L54.9753 24.256C54.7362 24.7939 54.4274 25.272 54.0489 25.6904C53.6704 26.1087 53.0428 26.3179 52.1663 26.3179C51.4491 26.3179 50.7718 26.2183 50.1343 26.0191V29.6947C50.4729 29.874 50.8614 30.0035 51.2997 30.0831C51.7579 30.1628 52.2261 30.2027 52.7042 30.2027Z" fill="black"/>
</svg>
